<mxfile host="app.diagrams.net" modified="2023-10-23T04:29:07.430Z" agent="Mozilla/5.0 (Macintosh; Intel Mac OS X 10_15_7) AppleWebKit/537.36 (KHTML, like Gecko) Chrome/118.0.0.0 Safari/537.36" etag="Ue104gKplMh9yULkuze5" version="22.0.6" type="github">
  <diagram name="Page-1" id="q84bq0co-Lm0mfgD_XMs">
    <mxGraphModel dx="954" dy="510" grid="1" gridSize="10" guides="1" tooltips="1" connect="1" arrows="1" fold="1" page="1" pageScale="1" pageWidth="850" pageHeight="1100" math="0" shadow="0">
      <root>
        <mxCell id="0" />
        <mxCell id="1" parent="0" />
        <mxCell id="frEbsFzNZ5fKAJ1OZ8PQ-3" value="&lt;h2 style=&quot;&quot;&gt;&lt;span style=&quot;background-color: initial;&quot;&gt;Validator&lt;/span&gt;&lt;/h2&gt;" style="whiteSpace=wrap;html=1;aspect=fixed;align=center;labelPosition=center;verticalLabelPosition=top;verticalAlign=bottom;fontColor=#006600;" vertex="1" parent="1">
          <mxGeometry x="150" y="170" width="330" height="330" as="geometry" />
        </mxCell>
        <mxCell id="frEbsFzNZ5fKAJ1OZ8PQ-16" style="edgeStyle=orthogonalEdgeStyle;rounded=0;orthogonalLoop=1;jettySize=auto;html=1;" edge="1" parent="1" source="frEbsFzNZ5fKAJ1OZ8PQ-4">
          <mxGeometry relative="1" as="geometry">
            <mxPoint x="230" y="550" as="targetPoint" />
          </mxGeometry>
        </mxCell>
        <mxCell id="frEbsFzNZ5fKAJ1OZ8PQ-4" value="Rewarder" style="rounded=1;whiteSpace=wrap;html=1;" vertex="1" parent="1">
          <mxGeometry x="170" y="305" width="120" height="60" as="geometry" />
        </mxCell>
        <mxCell id="frEbsFzNZ5fKAJ1OZ8PQ-5" value="Prompt Generator" style="rounded=1;whiteSpace=wrap;html=1;" vertex="1" parent="1">
          <mxGeometry x="320" y="305" width="120" height="60" as="geometry" />
        </mxCell>
        <mxCell id="frEbsFzNZ5fKAJ1OZ8PQ-11" style="edgeStyle=orthogonalEdgeStyle;rounded=0;orthogonalLoop=1;jettySize=auto;html=1;exitX=0.5;exitY=0;exitDx=0;exitDy=0;entryX=0.5;entryY=0;entryDx=0;entryDy=0;" edge="1" parent="1" source="frEbsFzNZ5fKAJ1OZ8PQ-6" target="frEbsFzNZ5fKAJ1OZ8PQ-4">
          <mxGeometry relative="1" as="geometry" />
        </mxCell>
        <mxCell id="frEbsFzNZ5fKAJ1OZ8PQ-12" value="Return Generated Images" style="edgeLabel;html=1;align=center;verticalAlign=middle;resizable=0;points=[];" vertex="1" connectable="0" parent="frEbsFzNZ5fKAJ1OZ8PQ-11">
          <mxGeometry x="-0.2867" y="-2" relative="1" as="geometry">
            <mxPoint as="offset" />
          </mxGeometry>
        </mxCell>
        <mxCell id="frEbsFzNZ5fKAJ1OZ8PQ-6" value="Stable Diffusion Endpoint" style="ellipse;whiteSpace=wrap;html=1;aspect=fixed;fontColor=#6600CC;" vertex="1" parent="1">
          <mxGeometry x="700" y="275" width="120" height="120" as="geometry" />
        </mxCell>
        <mxCell id="frEbsFzNZ5fKAJ1OZ8PQ-9" style="edgeStyle=orthogonalEdgeStyle;rounded=0;orthogonalLoop=1;jettySize=auto;html=1;entryX=0.5;entryY=0;entryDx=0;entryDy=0;" edge="1" parent="1" source="frEbsFzNZ5fKAJ1OZ8PQ-5" target="frEbsFzNZ5fKAJ1OZ8PQ-23">
          <mxGeometry relative="1" as="geometry">
            <mxPoint x="550" y="370" as="targetPoint" />
          </mxGeometry>
        </mxCell>
        <mxCell id="frEbsFzNZ5fKAJ1OZ8PQ-10" value="Generate Prompt" style="edgeLabel;html=1;align=center;verticalAlign=middle;resizable=0;points=[];" vertex="1" connectable="0" parent="frEbsFzNZ5fKAJ1OZ8PQ-9">
          <mxGeometry x="-0.1687" y="-1" relative="1" as="geometry">
            <mxPoint as="offset" />
          </mxGeometry>
        </mxCell>
        <mxCell id="frEbsFzNZ5fKAJ1OZ8PQ-17" value="&lt;h3&gt;REWARD&lt;/h3&gt;&lt;div&gt;1.2&lt;/div&gt;" style="text;html=1;strokeColor=none;fillColor=none;align=center;verticalAlign=middle;whiteSpace=wrap;rounded=0;fontStyle=1;fontColor=#F714FF;" vertex="1" parent="1">
          <mxGeometry x="200" y="560" width="60" height="30" as="geometry" />
        </mxCell>
        <mxCell id="frEbsFzNZ5fKAJ1OZ8PQ-24" style="edgeStyle=orthogonalEdgeStyle;rounded=0;orthogonalLoop=1;jettySize=auto;html=1;entryX=0.5;entryY=1;entryDx=0;entryDy=0;" edge="1" parent="1" source="frEbsFzNZ5fKAJ1OZ8PQ-23" target="frEbsFzNZ5fKAJ1OZ8PQ-6">
          <mxGeometry relative="1" as="geometry" />
        </mxCell>
        <mxCell id="frEbsFzNZ5fKAJ1OZ8PQ-25" value="request images" style="edgeLabel;html=1;align=center;verticalAlign=middle;resizable=0;points=[];" vertex="1" connectable="0" parent="frEbsFzNZ5fKAJ1OZ8PQ-24">
          <mxGeometry x="0.0355" y="-3" relative="1" as="geometry">
            <mxPoint as="offset" />
          </mxGeometry>
        </mxCell>
        <mxCell id="frEbsFzNZ5fKAJ1OZ8PQ-26" style="edgeStyle=orthogonalEdgeStyle;rounded=0;orthogonalLoop=1;jettySize=auto;html=1;entryX=1;entryY=0.5;entryDx=0;entryDy=0;" edge="1" parent="1" source="frEbsFzNZ5fKAJ1OZ8PQ-23" target="frEbsFzNZ5fKAJ1OZ8PQ-4">
          <mxGeometry relative="1" as="geometry">
            <Array as="points">
              <mxPoint x="310" y="430" />
              <mxPoint x="310" y="335" />
            </Array>
          </mxGeometry>
        </mxCell>
        <mxCell id="frEbsFzNZ5fKAJ1OZ8PQ-23" value="&lt;pre&gt;a landscape of...&lt;/pre&gt;" style="text;html=1;strokeColor=none;fillColor=none;spacing=5;spacingTop=-20;whiteSpace=wrap;overflow=hidden;rounded=0;fontStyle=2" vertex="1" parent="1">
          <mxGeometry x="317.5" y="420" width="125" height="20" as="geometry" />
        </mxCell>
      </root>
    </mxGraphModel>
  </diagram>
</mxfile>
